<svg xmlns="http://www.w3.org/2000/svg" width="117.969" height="64" viewBox="0 0 117.969 64">
  <g id="组_6199" data-name="组 6199" transform="translate(-2 -2)">
    <path id="路径_1038" data-name="路径 1038" d="M11472.3,1480.95l11.7,3.05,11.7-3.05L11484,1478Z" transform="translate(-11389 -1460)" fill="#1fa5aa"/>
    <path id="路径_1037" data-name="路径 1037" d="M11456.9,1505.85l27.1,7.15,27.1-7.15L11484,1499Z" transform="translate(-11448 -1460)" fill="#ff6d6d"/>
    <path id="减去_63" data-name="减去 63" d="M34,18h0l-9.562-2.531L34,0l9.562,15.469L34,18Z" transform="translate(2 2)" fill="#50e15f"/>
    <path id="减去_76" data-name="减去 76" d="M34,30.672h0l-24.97-6.61L22.315,2.578,34,5.672,45.688,2.579,58.971,24.062,34,30.672Z" transform="translate(60.998 18.328)" fill="#31cacf"/>
    <path id="减去_57" data-name="减去 57" d="M34,77h0L0,68,6.906,56.828,34,64l27.094-7.172L68,68,34,77Z" transform="translate(2 -11)" fill="red" opacity="0.41"/>
  </g>
</svg>
